<mxfile host="app.diagrams.net" agent="Mozilla/5.0 (Windows NT 10.0; Win64; x64) AppleWebKit/537.36 (KHTML, like Gecko) Chrome/140.0.0.0 Safari/537.36" version="28.2.5">
  <diagram name="Page-1" id="REsOMPNNWmw8ulfZwF3x">
    <mxGraphModel dx="1821" dy="432" grid="1" gridSize="10" guides="1" tooltips="1" connect="1" arrows="1" fold="1" page="1" pageScale="1" pageWidth="850" pageHeight="1100" math="0" shadow="0">
      <root>
        <mxCell id="0" />
        <mxCell id="1" parent="0" />
        <mxCell id="oJ3E4rCQZsHQg811ANoI-1" value="FileOps.c" style="swimlane;fontStyle=1;align=center;verticalAlign=top;childLayout=stackLayout;horizontal=1;startSize=26;horizontalStack=0;resizeParent=1;resizeParentMax=0;resizeLast=0;collapsible=1;marginBottom=0;whiteSpace=wrap;html=1;" parent="1" vertex="1">
          <mxGeometry x="40" y="40" width="200" height="140" as="geometry" />
        </mxCell>
        <mxCell id="oJ3E4rCQZsHQg811ANoI-3" value="" style="line;strokeWidth=1;fillColor=none;align=left;verticalAlign=middle;spacingTop=-1;spacingLeft=3;spacingRight=3;rotatable=0;labelPosition=right;points=[];portConstraint=eastwest;strokeColor=inherit;" parent="oJ3E4rCQZsHQg811ANoI-1" vertex="1">
          <mxGeometry y="26" width="200" height="8" as="geometry" />
        </mxCell>
        <mxCell id="oJ3E4rCQZsHQg811ANoI-4" value="&lt;div&gt;+ loadGame(* GameParam: bool&lt;/div&gt;+ saveGame(* GameParam): bool" style="text;strokeColor=none;fillColor=none;align=left;verticalAlign=top;spacingLeft=4;spacingRight=4;overflow=hidden;rotatable=0;points=[[0,0.5],[1,0.5]];portConstraint=eastwest;whiteSpace=wrap;html=1;" parent="oJ3E4rCQZsHQg811ANoI-1" vertex="1">
          <mxGeometry y="34" width="200" height="36" as="geometry" />
        </mxCell>
        <mxCell id="oJ3E4rCQZsHQg811ANoI-15" value="+ loadShop(* Shop): bool&lt;div&gt;+ saveShop(* Shop): bool&lt;/div&gt;" style="text;strokeColor=none;fillColor=none;align=left;verticalAlign=top;spacingLeft=4;spacingRight=4;overflow=hidden;rotatable=0;points=[[0,0.5],[1,0.5]];portConstraint=eastwest;whiteSpace=wrap;html=1;" parent="oJ3E4rCQZsHQg811ANoI-1" vertex="1">
          <mxGeometry y="70" width="200" height="40" as="geometry" />
        </mxCell>
        <mxCell id="oJ3E4rCQZsHQg811ANoI-16" value="+ loadMonster(* Game" style="text;strokeColor=none;fillColor=none;align=left;verticalAlign=top;spacingLeft=4;spacingRight=4;overflow=hidden;rotatable=0;points=[[0,0.5],[1,0.5]];portConstraint=eastwest;whiteSpace=wrap;html=1;" parent="oJ3E4rCQZsHQg811ANoI-1" vertex="1">
          <mxGeometry y="110" width="200" height="30" as="geometry" />
        </mxCell>
        <mxCell id="oJ3E4rCQZsHQg811ANoI-21" value="Combat.c" style="swimlane;fontStyle=0;childLayout=stackLayout;horizontal=1;startSize=26;fillColor=none;horizontalStack=0;resizeParent=1;resizeParentMax=0;resizeLast=0;collapsible=1;marginBottom=0;whiteSpace=wrap;html=1;" parent="1" vertex="1">
          <mxGeometry x="40" y="200" width="170" height="112" as="geometry" />
        </mxCell>
        <mxCell id="oJ3E4rCQZsHQg811ANoI-22" value="+ monsterList: monsterObject" style="text;strokeColor=none;fillColor=none;align=left;verticalAlign=top;spacingLeft=4;spacingRight=4;overflow=hidden;rotatable=0;points=[[0,0.5],[1,0.5]];portConstraint=eastwest;whiteSpace=wrap;html=1;" parent="oJ3E4rCQZsHQg811ANoI-21" vertex="1">
          <mxGeometry y="26" width="170" height="26" as="geometry" />
        </mxCell>
        <mxCell id="oJ3E4rCQZsHQg811ANoI-25" value="" style="line;strokeWidth=1;fillColor=none;align=left;verticalAlign=middle;spacingTop=-1;spacingLeft=3;spacingRight=3;rotatable=0;labelPosition=right;points=[];portConstraint=eastwest;strokeColor=inherit;" parent="oJ3E4rCQZsHQg811ANoI-21" vertex="1">
          <mxGeometry y="52" width="170" height="8" as="geometry" />
        </mxCell>
        <mxCell id="oJ3E4rCQZsHQg811ANoI-23" value="+ field: type" style="text;strokeColor=none;fillColor=none;align=left;verticalAlign=top;spacingLeft=4;spacingRight=4;overflow=hidden;rotatable=0;points=[[0,0.5],[1,0.5]];portConstraint=eastwest;whiteSpace=wrap;html=1;" parent="oJ3E4rCQZsHQg811ANoI-21" vertex="1">
          <mxGeometry y="60" width="170" height="26" as="geometry" />
        </mxCell>
        <mxCell id="oJ3E4rCQZsHQg811ANoI-24" value="+ field: type" style="text;strokeColor=none;fillColor=none;align=left;verticalAlign=top;spacingLeft=4;spacingRight=4;overflow=hidden;rotatable=0;points=[[0,0.5],[1,0.5]];portConstraint=eastwest;whiteSpace=wrap;html=1;" parent="oJ3E4rCQZsHQg811ANoI-21" vertex="1">
          <mxGeometry y="86" width="170" height="26" as="geometry" />
        </mxCell>
        <mxCell id="oJ3E4rCQZsHQg811ANoI-69" style="edgeStyle=orthogonalEdgeStyle;rounded=0;orthogonalLoop=1;jettySize=auto;html=1;" parent="1" source="oJ3E4rCQZsHQg811ANoI-26" target="oJ3E4rCQZsHQg811ANoI-58" edge="1">
          <mxGeometry relative="1" as="geometry" />
        </mxCell>
        <mxCell id="oJ3E4rCQZsHQg811ANoI-26" value="Start" style="strokeWidth=2;html=1;shape=mxgraph.flowchart.start_2;whiteSpace=wrap;" parent="1" vertex="1">
          <mxGeometry x="520" y="562" width="70" height="68" as="geometry" />
        </mxCell>
        <mxCell id="oJ3E4rCQZsHQg811ANoI-27" value="Hiện main menu" style="rounded=1;whiteSpace=wrap;html=1;absoluteArcSize=1;arcSize=14;strokeWidth=2;" parent="1" vertex="1">
          <mxGeometry x="-56.230000000000004" y="320" width="95" height="50" as="geometry" />
        </mxCell>
        <mxCell id="VBR34R2BidAj_h5bLNep-1" style="edgeStyle=orthogonalEdgeStyle;rounded=0;orthogonalLoop=1;jettySize=auto;html=1;" parent="1" source="oJ3E4rCQZsHQg811ANoI-28" target="oJ3E4rCQZsHQg811ANoI-37" edge="1">
          <mxGeometry relative="1" as="geometry">
            <mxPoint x="33.940000000000055" y="567" as="sourcePoint" />
          </mxGeometry>
        </mxCell>
        <mxCell id="VBR34R2BidAj_h5bLNep-5" style="edgeStyle=orthogonalEdgeStyle;rounded=0;orthogonalLoop=1;jettySize=auto;html=1;" parent="1" source="oJ3E4rCQZsHQg811ANoI-28" target="oJ3E4rCQZsHQg811ANoI-30" edge="1">
          <mxGeometry relative="1" as="geometry">
            <mxPoint x="-8.55555555555543" y="607" as="sourcePoint" />
          </mxGeometry>
        </mxCell>
        <mxCell id="oJ3E4rCQZsHQg811ANoI-28" value="New game" style="strokeWidth=2;html=1;shape=mxgraph.flowchart.decision;whiteSpace=wrap;" parent="1" vertex="1">
          <mxGeometry x="-48.56" y="530" width="85" height="80" as="geometry" />
        </mxCell>
        <mxCell id="VBR34R2BidAj_h5bLNep-3" style="edgeStyle=orthogonalEdgeStyle;rounded=0;orthogonalLoop=1;jettySize=auto;html=1;" parent="1" source="oJ3E4rCQZsHQg811ANoI-30" target="oJ3E4rCQZsHQg811ANoI-72" edge="1">
          <mxGeometry relative="1" as="geometry" />
        </mxCell>
        <mxCell id="oJ3E4rCQZsHQg811ANoI-30" value="Load game" style="strokeWidth=2;html=1;shape=mxgraph.flowchart.decision;whiteSpace=wrap;" parent="1" vertex="1">
          <mxGeometry x="-48.56" y="637" width="85" height="80" as="geometry" />
        </mxCell>
        <mxCell id="VBR34R2BidAj_h5bLNep-7" style="edgeStyle=orthogonalEdgeStyle;rounded=0;orthogonalLoop=1;jettySize=auto;html=1;" parent="1" source="oJ3E4rCQZsHQg811ANoI-32" target="oJ3E4rCQZsHQg811ANoI-35" edge="1">
          <mxGeometry relative="1" as="geometry" />
        </mxCell>
        <mxCell id="oJ3E4rCQZsHQg811ANoI-32" value="Thoát" style="strokeWidth=2;html=1;shape=mxgraph.flowchart.decision;whiteSpace=wrap;" parent="1" vertex="1">
          <mxGeometry x="-48.56" y="782" width="85" height="80" as="geometry" />
        </mxCell>
        <mxCell id="oJ3E4rCQZsHQg811ANoI-34" style="edgeStyle=orthogonalEdgeStyle;rounded=0;orthogonalLoop=1;jettySize=auto;html=1;entryX=0;entryY=0.5;entryDx=0;entryDy=0;entryPerimeter=0;" parent="1" source="oJ3E4rCQZsHQg811ANoI-33" target="oJ3E4rCQZsHQg811ANoI-30" edge="1">
          <mxGeometry relative="1" as="geometry">
            <mxPoint x="-101.06" y="662" as="targetPoint" />
            <Array as="points">
              <mxPoint x="290" y="752" />
              <mxPoint x="-100" y="752" />
              <mxPoint x="-100" y="662" />
            </Array>
          </mxGeometry>
        </mxCell>
        <mxCell id="j7GnpJIxGhJe8ZzKr4eX-4" style="edgeStyle=orthogonalEdgeStyle;rounded=0;orthogonalLoop=1;jettySize=auto;html=1;" parent="1" source="oJ3E4rCQZsHQg811ANoI-33" target="j7GnpJIxGhJe8ZzKr4eX-2" edge="1">
          <mxGeometry relative="1" as="geometry" />
        </mxCell>
        <mxCell id="oJ3E4rCQZsHQg811ANoI-33" value="Lỗi" style="strokeWidth=2;html=1;shape=mxgraph.flowchart.decision;whiteSpace=wrap;" parent="1" vertex="1">
          <mxGeometry x="250" y="635" width="80" height="80" as="geometry" />
        </mxCell>
        <mxCell id="oJ3E4rCQZsHQg811ANoI-35" value="Kết thúc chương trình" style="strokeWidth=2;html=1;shape=mxgraph.flowchart.terminator;whiteSpace=wrap;" parent="1" vertex="1">
          <mxGeometry x="-58.56" y="902" width="100" height="60" as="geometry" />
        </mxCell>
        <mxCell id="VBR34R2BidAj_h5bLNep-2" style="edgeStyle=orthogonalEdgeStyle;rounded=0;orthogonalLoop=1;jettySize=auto;html=1;entryX=0;entryY=0.5;entryDx=0;entryDy=0;" parent="1" source="oJ3E4rCQZsHQg811ANoI-37" target="oJ3E4rCQZsHQg811ANoI-38" edge="1">
          <mxGeometry relative="1" as="geometry" />
        </mxCell>
        <mxCell id="oJ3E4rCQZsHQg811ANoI-37" value="Luồng tạo nhân vật" style="rounded=1;whiteSpace=wrap;html=1;absoluteArcSize=1;arcSize=14;strokeWidth=2;" parent="1" vertex="1">
          <mxGeometry x="98.94" y="537" width="90" height="70" as="geometry" />
        </mxCell>
        <mxCell id="j7GnpJIxGhJe8ZzKr4eX-3" style="edgeStyle=orthogonalEdgeStyle;rounded=0;orthogonalLoop=1;jettySize=auto;html=1;" parent="1" source="oJ3E4rCQZsHQg811ANoI-38" target="j7GnpJIxGhJe8ZzKr4eX-2" edge="1">
          <mxGeometry relative="1" as="geometry" />
        </mxCell>
        <mxCell id="oJ3E4rCQZsHQg811ANoI-38" value="Luồng lưu game" style="rounded=1;whiteSpace=wrap;html=1;absoluteArcSize=1;arcSize=14;strokeWidth=2;" parent="1" vertex="1">
          <mxGeometry x="260" y="537" width="100" height="70" as="geometry" />
        </mxCell>
        <mxCell id="oJ3E4rCQZsHQg811ANoI-129" style="edgeStyle=orthogonalEdgeStyle;rounded=0;orthogonalLoop=1;jettySize=auto;html=1;" parent="1" source="oJ3E4rCQZsHQg811ANoI-40" target="oJ3E4rCQZsHQg811ANoI-42" edge="1">
          <mxGeometry relative="1" as="geometry" />
        </mxCell>
        <mxCell id="j7GnpJIxGhJe8ZzKr4eX-14" value="Co" style="edgeLabel;html=1;align=center;verticalAlign=middle;resizable=0;points=[];" parent="oJ3E4rCQZsHQg811ANoI-129" vertex="1" connectable="0">
          <mxGeometry x="-0.3333" y="7" relative="1" as="geometry">
            <mxPoint as="offset" />
          </mxGeometry>
        </mxCell>
        <mxCell id="oJ3E4rCQZsHQg811ANoI-40" value="Map khởi đầu" style="strokeWidth=2;html=1;shape=mxgraph.flowchart.decision;whiteSpace=wrap;" parent="1" vertex="1">
          <mxGeometry x="810" y="780" width="100" height="100" as="geometry" />
        </mxCell>
        <mxCell id="oJ3E4rCQZsHQg811ANoI-145" style="edgeStyle=orthogonalEdgeStyle;rounded=0;orthogonalLoop=1;jettySize=auto;html=1;" parent="1" source="oJ3E4rCQZsHQg811ANoI-42" target="oJ3E4rCQZsHQg811ANoI-79" edge="1">
          <mxGeometry relative="1" as="geometry" />
        </mxCell>
        <mxCell id="oJ3E4rCQZsHQg811ANoI-42" value="Shop" style="strokeWidth=2;html=1;shape=mxgraph.flowchart.decision;whiteSpace=wrap;" parent="1" vertex="1">
          <mxGeometry x="810" y="920" width="100" height="100" as="geometry" />
        </mxCell>
        <mxCell id="oJ3E4rCQZsHQg811ANoI-146" style="edgeStyle=orthogonalEdgeStyle;rounded=0;orthogonalLoop=1;jettySize=auto;html=1;" parent="1" source="oJ3E4rCQZsHQg811ANoI-43" target="oJ3E4rCQZsHQg811ANoI-80" edge="1">
          <mxGeometry relative="1" as="geometry" />
        </mxCell>
        <mxCell id="oJ3E4rCQZsHQg811ANoI-43" value="Di chuyển" style="strokeWidth=2;html=1;shape=mxgraph.flowchart.decision;whiteSpace=wrap;" parent="1" vertex="1">
          <mxGeometry x="810" y="1060" width="100" height="100" as="geometry" />
        </mxCell>
        <mxCell id="oJ3E4rCQZsHQg811ANoI-137" style="edgeStyle=orthogonalEdgeStyle;rounded=0;orthogonalLoop=1;jettySize=auto;html=1;" parent="1" source="oJ3E4rCQZsHQg811ANoI-44" target="oJ3E4rCQZsHQg811ANoI-83" edge="1">
          <mxGeometry relative="1" as="geometry" />
        </mxCell>
        <mxCell id="oJ3E4rCQZsHQg811ANoI-44" value="Huấn luyện" style="strokeWidth=2;html=1;shape=mxgraph.flowchart.decision;whiteSpace=wrap;" parent="1" vertex="1">
          <mxGeometry x="810" y="1280" width="100" height="100" as="geometry" />
        </mxCell>
        <mxCell id="oJ3E4rCQZsHQg811ANoI-135" style="edgeStyle=orthogonalEdgeStyle;rounded=0;orthogonalLoop=1;jettySize=auto;html=1;" parent="1" source="oJ3E4rCQZsHQg811ANoI-45" target="oJ3E4rCQZsHQg811ANoI-81" edge="1">
          <mxGeometry relative="1" as="geometry" />
        </mxCell>
        <mxCell id="oJ3E4rCQZsHQg811ANoI-45" value="Nghỉ ngơi" style="strokeWidth=2;html=1;shape=mxgraph.flowchart.decision;whiteSpace=wrap;" parent="1" vertex="1">
          <mxGeometry x="810" y="1410" width="100" height="100" as="geometry" />
        </mxCell>
        <mxCell id="oJ3E4rCQZsHQg811ANoI-123" style="edgeStyle=orthogonalEdgeStyle;rounded=0;orthogonalLoop=1;jettySize=auto;html=1;" parent="1" source="oJ3E4rCQZsHQg811ANoI-46" target="oJ3E4rCQZsHQg811ANoI-66" edge="1">
          <mxGeometry relative="1" as="geometry" />
        </mxCell>
        <mxCell id="oJ3E4rCQZsHQg811ANoI-124" style="edgeStyle=orthogonalEdgeStyle;rounded=0;orthogonalLoop=1;jettySize=auto;html=1;" parent="1" source="oJ3E4rCQZsHQg811ANoI-46" target="oJ3E4rCQZsHQg811ANoI-47" edge="1">
          <mxGeometry relative="1" as="geometry" />
        </mxCell>
        <mxCell id="oJ3E4rCQZsHQg811ANoI-46" value="Khám phá" style="strokeWidth=2;html=1;shape=mxgraph.flowchart.decision;whiteSpace=wrap;" parent="1" vertex="1">
          <mxGeometry x="1100" y="780" width="100" height="100" as="geometry" />
        </mxCell>
        <mxCell id="oJ3E4rCQZsHQg811ANoI-125" style="edgeStyle=orthogonalEdgeStyle;rounded=0;orthogonalLoop=1;jettySize=auto;html=1;" parent="1" source="oJ3E4rCQZsHQg811ANoI-47" target="oJ3E4rCQZsHQg811ANoI-48" edge="1">
          <mxGeometry relative="1" as="geometry" />
        </mxCell>
        <mxCell id="oJ3E4rCQZsHQg811ANoI-144" style="edgeStyle=orthogonalEdgeStyle;rounded=0;orthogonalLoop=1;jettySize=auto;html=1;" parent="1" source="oJ3E4rCQZsHQg811ANoI-47" target="oJ3E4rCQZsHQg811ANoI-68" edge="1">
          <mxGeometry relative="1" as="geometry" />
        </mxCell>
        <mxCell id="oJ3E4rCQZsHQg811ANoI-47" value="Di chuyển" style="strokeWidth=2;html=1;shape=mxgraph.flowchart.decision;whiteSpace=wrap;" parent="1" vertex="1">
          <mxGeometry x="1100" y="920" width="100" height="100" as="geometry" />
        </mxCell>
        <mxCell id="oJ3E4rCQZsHQg811ANoI-143" style="edgeStyle=orthogonalEdgeStyle;rounded=0;orthogonalLoop=1;jettySize=auto;html=1;" parent="1" source="oJ3E4rCQZsHQg811ANoI-48" target="oJ3E4rCQZsHQg811ANoI-78" edge="1">
          <mxGeometry relative="1" as="geometry" />
        </mxCell>
        <mxCell id="oJ3E4rCQZsHQg811ANoI-48" value="Biến về" style="strokeWidth=2;html=1;shape=mxgraph.flowchart.decision;whiteSpace=wrap;" parent="1" vertex="1">
          <mxGeometry x="1100" y="1060" width="100" height="100" as="geometry" />
        </mxCell>
        <mxCell id="oJ3E4rCQZsHQg811ANoI-98" style="edgeStyle=orthogonalEdgeStyle;rounded=0;orthogonalLoop=1;jettySize=auto;html=1;" parent="1" source="oJ3E4rCQZsHQg811ANoI-49" target="oJ3E4rCQZsHQg811ANoI-51" edge="1">
          <mxGeometry relative="1" as="geometry" />
        </mxCell>
        <mxCell id="oJ3E4rCQZsHQg811ANoI-100" style="edgeStyle=orthogonalEdgeStyle;rounded=0;orthogonalLoop=1;jettySize=auto;html=1;" parent="1" source="oJ3E4rCQZsHQg811ANoI-49" target="oJ3E4rCQZsHQg811ANoI-53" edge="1">
          <mxGeometry relative="1" as="geometry" />
        </mxCell>
        <mxCell id="oJ3E4rCQZsHQg811ANoI-49" value="Sự kiện combat" style="strokeWidth=2;html=1;shape=mxgraph.flowchart.decision;whiteSpace=wrap;" parent="1" vertex="1">
          <mxGeometry x="1135" y="155" width="100" height="100" as="geometry" />
        </mxCell>
        <mxCell id="oJ3E4rCQZsHQg811ANoI-97" style="edgeStyle=orthogonalEdgeStyle;rounded=0;orthogonalLoop=1;jettySize=auto;html=1;" parent="1" source="oJ3E4rCQZsHQg811ANoI-50" target="oJ3E4rCQZsHQg811ANoI-49" edge="1">
          <mxGeometry relative="1" as="geometry" />
        </mxCell>
        <mxCell id="oJ3E4rCQZsHQg811ANoI-50" value="Chọn tỉ lệ ra các sự kiện" style="rounded=1;whiteSpace=wrap;html=1;absoluteArcSize=1;arcSize=14;strokeWidth=2;" parent="1" vertex="1">
          <mxGeometry x="1140" y="20" width="90" height="90" as="geometry" />
        </mxCell>
        <mxCell id="oJ3E4rCQZsHQg811ANoI-99" style="edgeStyle=orthogonalEdgeStyle;rounded=0;orthogonalLoop=1;jettySize=auto;html=1;" parent="1" source="oJ3E4rCQZsHQg811ANoI-51" target="oJ3E4rCQZsHQg811ANoI-52" edge="1">
          <mxGeometry relative="1" as="geometry" />
        </mxCell>
        <mxCell id="oJ3E4rCQZsHQg811ANoI-104" style="edgeStyle=orthogonalEdgeStyle;rounded=0;orthogonalLoop=1;jettySize=auto;html=1;" parent="1" source="oJ3E4rCQZsHQg811ANoI-51" target="oJ3E4rCQZsHQg811ANoI-64" edge="1">
          <mxGeometry relative="1" as="geometry" />
        </mxCell>
        <mxCell id="oJ3E4rCQZsHQg811ANoI-51" value="Sự kiện trao đổi" style="strokeWidth=2;html=1;shape=mxgraph.flowchart.decision;whiteSpace=wrap;" parent="1" vertex="1">
          <mxGeometry x="1135" y="295" width="100" height="100" as="geometry" />
        </mxCell>
        <mxCell id="oJ3E4rCQZsHQg811ANoI-106" style="edgeStyle=orthogonalEdgeStyle;rounded=0;orthogonalLoop=1;jettySize=auto;html=1;" parent="1" source="oJ3E4rCQZsHQg811ANoI-52" target="oJ3E4rCQZsHQg811ANoI-65" edge="1">
          <mxGeometry relative="1" as="geometry" />
        </mxCell>
        <mxCell id="oJ3E4rCQZsHQg811ANoI-52" value="Sự kiện cộng chỉ số" style="strokeWidth=2;html=1;shape=mxgraph.flowchart.decision;whiteSpace=wrap;" parent="1" vertex="1">
          <mxGeometry x="1135" y="435" width="100" height="100" as="geometry" />
        </mxCell>
        <mxCell id="oJ3E4rCQZsHQg811ANoI-101" style="edgeStyle=orthogonalEdgeStyle;rounded=0;orthogonalLoop=1;jettySize=auto;html=1;" parent="1" source="oJ3E4rCQZsHQg811ANoI-53" target="oJ3E4rCQZsHQg811ANoI-54" edge="1">
          <mxGeometry relative="1" as="geometry" />
        </mxCell>
        <mxCell id="oJ3E4rCQZsHQg811ANoI-53" value="Luồng combat" style="rounded=1;whiteSpace=wrap;html=1;absoluteArcSize=1;arcSize=14;strokeWidth=2;" parent="1" vertex="1">
          <mxGeometry x="1290" y="160" width="90" height="90" as="geometry" />
        </mxCell>
        <mxCell id="oJ3E4rCQZsHQg811ANoI-102" style="edgeStyle=orthogonalEdgeStyle;rounded=0;orthogonalLoop=1;jettySize=auto;html=1;" parent="1" source="oJ3E4rCQZsHQg811ANoI-54" target="oJ3E4rCQZsHQg811ANoI-55" edge="1">
          <mxGeometry relative="1" as="geometry" />
        </mxCell>
        <mxCell id="oJ3E4rCQZsHQg811ANoI-103" style="edgeStyle=orthogonalEdgeStyle;rounded=0;orthogonalLoop=1;jettySize=auto;html=1;" parent="1" source="oJ3E4rCQZsHQg811ANoI-54" target="oJ3E4rCQZsHQg811ANoI-74" edge="1">
          <mxGeometry relative="1" as="geometry" />
        </mxCell>
        <mxCell id="oJ3E4rCQZsHQg811ANoI-54" value="Thắng/ Không ngủm" style="strokeWidth=2;html=1;shape=mxgraph.flowchart.decision;whiteSpace=wrap;" parent="1" vertex="1">
          <mxGeometry x="1440" y="150" width="100" height="100" as="geometry" />
        </mxCell>
        <mxCell id="oJ3E4rCQZsHQg811ANoI-110" style="edgeStyle=orthogonalEdgeStyle;rounded=0;orthogonalLoop=1;jettySize=auto;html=1;" parent="1" source="oJ3E4rCQZsHQg811ANoI-55" target="oJ3E4rCQZsHQg811ANoI-50" edge="1">
          <mxGeometry relative="1" as="geometry">
            <mxPoint x="1230" y="60" as="targetPoint" />
            <Array as="points">
              <mxPoint x="1770" y="205" />
              <mxPoint x="1770" y="70" />
            </Array>
          </mxGeometry>
        </mxCell>
        <mxCell id="oJ3E4rCQZsHQg811ANoI-55" value="Cộng stat" style="rounded=1;whiteSpace=wrap;html=1;absoluteArcSize=1;arcSize=14;strokeWidth=2;" parent="1" vertex="1">
          <mxGeometry x="1590" y="160" width="90" height="90" as="geometry" />
        </mxCell>
        <mxCell id="oJ3E4rCQZsHQg811ANoI-56" value="Config có tùy chọn save game khi combat hoặc không" style="text;html=1;align=center;verticalAlign=middle;whiteSpace=wrap;rounded=0;" parent="1" vertex="1">
          <mxGeometry x="-51.06" y="717" width="140" height="30" as="geometry" />
        </mxCell>
        <mxCell id="oJ3E4rCQZsHQg811ANoI-134" style="edgeStyle=orthogonalEdgeStyle;rounded=0;orthogonalLoop=1;jettySize=auto;html=1;entryX=0;entryY=0.5;entryDx=0;entryDy=0;" parent="1" source="oJ3E4rCQZsHQg811ANoI-57" target="oJ3E4rCQZsHQg811ANoI-90" edge="1">
          <mxGeometry relative="1" as="geometry" />
        </mxCell>
        <mxCell id="oJ3E4rCQZsHQg811ANoI-57" value="Menu" style="strokeWidth=2;html=1;shape=mxgraph.flowchart.decision;whiteSpace=wrap;" parent="1" vertex="1">
          <mxGeometry x="810" y="1550" width="100" height="100" as="geometry" />
        </mxCell>
        <mxCell id="j7GnpJIxGhJe8ZzKr4eX-9" style="edgeStyle=orthogonalEdgeStyle;rounded=0;orthogonalLoop=1;jettySize=auto;html=1;" parent="1" source="oJ3E4rCQZsHQg811ANoI-58" target="j7GnpJIxGhJe8ZzKr4eX-8" edge="1">
          <mxGeometry relative="1" as="geometry" />
        </mxCell>
        <mxCell id="oJ3E4rCQZsHQg811ANoI-58" value="Luồng main menu" style="rounded=1;whiteSpace=wrap;html=1;absoluteArcSize=1;arcSize=14;strokeWidth=2;" parent="1" vertex="1">
          <mxGeometry x="630" y="562" width="110" height="70" as="geometry" />
        </mxCell>
        <mxCell id="oJ3E4rCQZsHQg811ANoI-60" value="Game đang chạy" style="strokeWidth=2;html=1;shape=mxgraph.flowchart.decision;whiteSpace=wrap;" parent="1" vertex="1">
          <mxGeometry x="-53.900000000000006" y="420" width="90.34" height="80" as="geometry" />
        </mxCell>
        <mxCell id="oJ3E4rCQZsHQg811ANoI-61" value="Save game" style="strokeWidth=2;html=1;shape=mxgraph.flowchart.decision;whiteSpace=wrap;" parent="1" vertex="1">
          <mxGeometry x="-220" y="510" width="80" height="80" as="geometry" />
        </mxCell>
        <mxCell id="oJ3E4rCQZsHQg811ANoI-63" value="Xem chỉ số" style="strokeWidth=2;html=1;shape=mxgraph.flowchart.decision;whiteSpace=wrap;" parent="1" vertex="1">
          <mxGeometry x="-220" y="610" width="80" height="80" as="geometry" />
        </mxCell>
        <mxCell id="oJ3E4rCQZsHQg811ANoI-109" style="edgeStyle=orthogonalEdgeStyle;rounded=0;orthogonalLoop=1;jettySize=auto;html=1;" parent="1" source="oJ3E4rCQZsHQg811ANoI-64" target="oJ3E4rCQZsHQg811ANoI-50" edge="1">
          <mxGeometry relative="1" as="geometry">
            <Array as="points">
              <mxPoint x="1335" y="400" />
              <mxPoint x="1770" y="400" />
              <mxPoint x="1770" y="65" />
            </Array>
          </mxGeometry>
        </mxCell>
        <mxCell id="oJ3E4rCQZsHQg811ANoI-64" value="Luồng shop" style="rounded=1;whiteSpace=wrap;html=1;absoluteArcSize=1;arcSize=14;strokeWidth=2;" parent="1" vertex="1">
          <mxGeometry x="1290" y="295" width="90" height="90" as="geometry" />
        </mxCell>
        <mxCell id="oJ3E4rCQZsHQg811ANoI-107" style="edgeStyle=orthogonalEdgeStyle;rounded=0;orthogonalLoop=1;jettySize=auto;html=1;" parent="1" source="oJ3E4rCQZsHQg811ANoI-65" target="oJ3E4rCQZsHQg811ANoI-75" edge="1">
          <mxGeometry relative="1" as="geometry" />
        </mxCell>
        <mxCell id="oJ3E4rCQZsHQg811ANoI-65" value="Luồng side event" style="rounded=1;whiteSpace=wrap;html=1;absoluteArcSize=1;arcSize=14;strokeWidth=2;" parent="1" vertex="1">
          <mxGeometry x="1290" y="445" width="90" height="80" as="geometry" />
        </mxCell>
        <mxCell id="oJ3E4rCQZsHQg811ANoI-66" value="Luông khám phá" style="rounded=1;whiteSpace=wrap;html=1;absoluteArcSize=1;arcSize=14;strokeWidth=2;" parent="1" vertex="1">
          <mxGeometry x="1270" y="780" width="100" height="100" as="geometry" />
        </mxCell>
        <mxCell id="oJ3E4rCQZsHQg811ANoI-68" value="Luồng di chuyển" style="rounded=1;whiteSpace=wrap;html=1;absoluteArcSize=1;arcSize=14;strokeWidth=2;" parent="1" vertex="1">
          <mxGeometry x="1265" y="920" width="100" height="100" as="geometry" />
        </mxCell>
        <mxCell id="oJ3E4rCQZsHQg811ANoI-72" value="Luồng load game" style="rounded=1;whiteSpace=wrap;html=1;absoluteArcSize=1;arcSize=14;strokeWidth=2;" parent="1" vertex="1">
          <mxGeometry x="98.94" y="642" width="91.06" height="73" as="geometry" />
        </mxCell>
        <mxCell id="oJ3E4rCQZsHQg811ANoI-74" value="Luồng load game" style="rounded=1;whiteSpace=wrap;html=1;absoluteArcSize=1;arcSize=14;strokeWidth=2;" parent="1" vertex="1">
          <mxGeometry x="1480" y="290" width="91.06" height="73" as="geometry" />
        </mxCell>
        <mxCell id="oJ3E4rCQZsHQg811ANoI-108" style="edgeStyle=orthogonalEdgeStyle;rounded=0;orthogonalLoop=1;jettySize=auto;html=1;" parent="1" source="oJ3E4rCQZsHQg811ANoI-75" target="oJ3E4rCQZsHQg811ANoI-76" edge="1">
          <mxGeometry relative="1" as="geometry" />
        </mxCell>
        <mxCell id="oJ3E4rCQZsHQg811ANoI-119" style="edgeStyle=orthogonalEdgeStyle;rounded=0;orthogonalLoop=1;jettySize=auto;html=1;entryX=1;entryY=0.5;entryDx=0;entryDy=0;" parent="1" source="oJ3E4rCQZsHQg811ANoI-75" target="oJ3E4rCQZsHQg811ANoI-50" edge="1">
          <mxGeometry relative="1" as="geometry">
            <Array as="points">
              <mxPoint x="1490" y="580" />
              <mxPoint x="1770" y="580" />
              <mxPoint x="1770" y="65" />
            </Array>
          </mxGeometry>
        </mxCell>
        <mxCell id="oJ3E4rCQZsHQg811ANoI-75" value="Thành công" style="strokeWidth=2;html=1;shape=mxgraph.flowchart.decision;whiteSpace=wrap;" parent="1" vertex="1">
          <mxGeometry x="1440" y="435" width="100" height="100" as="geometry" />
        </mxCell>
        <mxCell id="oJ3E4rCQZsHQg811ANoI-76" value="Cộng stat" style="rounded=1;whiteSpace=wrap;html=1;absoluteArcSize=1;arcSize=14;strokeWidth=2;" parent="1" vertex="1">
          <mxGeometry x="1590" y="440" width="90" height="90" as="geometry" />
        </mxCell>
        <mxCell id="oJ3E4rCQZsHQg811ANoI-78" value="+1 buổi + luồng di chuyển" style="rounded=1;whiteSpace=wrap;html=1;absoluteArcSize=1;arcSize=14;strokeWidth=2;" parent="1" vertex="1">
          <mxGeometry x="1270" y="1060" width="100" height="100" as="geometry" />
        </mxCell>
        <mxCell id="oJ3E4rCQZsHQg811ANoI-79" value="Luồng shop" style="rounded=1;whiteSpace=wrap;html=1;absoluteArcSize=1;arcSize=14;strokeWidth=2;" parent="1" vertex="1">
          <mxGeometry x="950" y="925" width="90" height="90" as="geometry" />
        </mxCell>
        <mxCell id="oJ3E4rCQZsHQg811ANoI-80" value="Luồng di chuyển" style="rounded=1;whiteSpace=wrap;html=1;absoluteArcSize=1;arcSize=14;strokeWidth=2;" parent="1" vertex="1">
          <mxGeometry x="945" y="1060" width="100" height="100" as="geometry" />
        </mxCell>
        <mxCell id="oJ3E4rCQZsHQg811ANoI-81" value="+1 buổi + Hồi đầy hp" style="rounded=1;whiteSpace=wrap;html=1;absoluteArcSize=1;arcSize=14;strokeWidth=2;" parent="1" vertex="1">
          <mxGeometry x="945" y="1410" width="100" height="100" as="geometry" />
        </mxCell>
        <mxCell id="oJ3E4rCQZsHQg811ANoI-138" style="edgeStyle=orthogonalEdgeStyle;rounded=0;orthogonalLoop=1;jettySize=auto;html=1;" parent="1" source="oJ3E4rCQZsHQg811ANoI-83" target="oJ3E4rCQZsHQg811ANoI-84" edge="1">
          <mxGeometry relative="1" as="geometry" />
        </mxCell>
        <mxCell id="oJ3E4rCQZsHQg811ANoI-140" style="edgeStyle=orthogonalEdgeStyle;rounded=0;orthogonalLoop=1;jettySize=auto;html=1;" parent="1" source="oJ3E4rCQZsHQg811ANoI-83" target="oJ3E4rCQZsHQg811ANoI-86" edge="1">
          <mxGeometry relative="1" as="geometry" />
        </mxCell>
        <mxCell id="oJ3E4rCQZsHQg811ANoI-83" value="Đánh tập" style="strokeWidth=2;html=1;shape=mxgraph.flowchart.decision;whiteSpace=wrap;" parent="1" vertex="1">
          <mxGeometry x="1100" y="1300" width="100" height="100" as="geometry" />
        </mxCell>
        <mxCell id="oJ3E4rCQZsHQg811ANoI-139" style="edgeStyle=orthogonalEdgeStyle;rounded=0;orthogonalLoop=1;jettySize=auto;html=1;" parent="1" source="oJ3E4rCQZsHQg811ANoI-84" target="oJ3E4rCQZsHQg811ANoI-85" edge="1">
          <mxGeometry relative="1" as="geometry" />
        </mxCell>
        <mxCell id="oJ3E4rCQZsHQg811ANoI-141" style="edgeStyle=orthogonalEdgeStyle;rounded=0;orthogonalLoop=1;jettySize=auto;html=1;entryX=0.5;entryY=0;entryDx=0;entryDy=0;" parent="1" source="oJ3E4rCQZsHQg811ANoI-84" target="oJ3E4rCQZsHQg811ANoI-87" edge="1">
          <mxGeometry relative="1" as="geometry" />
        </mxCell>
        <mxCell id="oJ3E4rCQZsHQg811ANoI-84" value="Đổi đội hình" style="strokeWidth=2;html=1;shape=mxgraph.flowchart.decision;whiteSpace=wrap;" parent="1" vertex="1">
          <mxGeometry x="1270" y="1300" width="100" height="100" as="geometry" />
        </mxCell>
        <mxCell id="oJ3E4rCQZsHQg811ANoI-85" value="Thoát" style="strokeWidth=2;html=1;shape=mxgraph.flowchart.decision;whiteSpace=wrap;" parent="1" vertex="1">
          <mxGeometry x="1440" y="1300" width="100" height="100" as="geometry" />
        </mxCell>
        <mxCell id="oJ3E4rCQZsHQg811ANoI-86" value="Luồng combat" style="rounded=1;whiteSpace=wrap;html=1;absoluteArcSize=1;arcSize=14;strokeWidth=2;" parent="1" vertex="1">
          <mxGeometry x="1105" y="1420" width="90" height="90" as="geometry" />
        </mxCell>
        <mxCell id="oJ3E4rCQZsHQg811ANoI-87" value="Luồng tạo nhân vật" style="rounded=1;whiteSpace=wrap;html=1;absoluteArcSize=1;arcSize=14;strokeWidth=2;" parent="1" vertex="1">
          <mxGeometry x="1272.5" y="1420" width="95" height="90" as="geometry" />
        </mxCell>
        <mxCell id="oJ3E4rCQZsHQg811ANoI-142" style="edgeStyle=orthogonalEdgeStyle;rounded=0;orthogonalLoop=1;jettySize=auto;html=1;" parent="1" source="oJ3E4rCQZsHQg811ANoI-88" target="oJ3E4rCQZsHQg811ANoI-89" edge="1">
          <mxGeometry relative="1" as="geometry" />
        </mxCell>
        <mxCell id="oJ3E4rCQZsHQg811ANoI-88" value="Menu" style="strokeWidth=2;html=1;shape=mxgraph.flowchart.decision;whiteSpace=wrap;" parent="1" vertex="1">
          <mxGeometry x="1100" y="1180" width="100" height="100" as="geometry" />
        </mxCell>
        <mxCell id="oJ3E4rCQZsHQg811ANoI-89" value="Thoat" style="rounded=1;whiteSpace=wrap;html=1;absoluteArcSize=1;arcSize=14;strokeWidth=2;" parent="1" vertex="1">
          <mxGeometry x="1265" y="1195" width="110" height="70" as="geometry" />
        </mxCell>
        <mxCell id="oJ3E4rCQZsHQg811ANoI-90" value="Thoat" style="rounded=1;whiteSpace=wrap;html=1;absoluteArcSize=1;arcSize=14;strokeWidth=2;" parent="1" vertex="1">
          <mxGeometry x="940" y="1565" width="110" height="70" as="geometry" />
        </mxCell>
        <mxCell id="oJ3E4rCQZsHQg811ANoI-112" value="Có" style="text;html=1;align=center;verticalAlign=middle;whiteSpace=wrap;rounded=0;" parent="1" vertex="1">
          <mxGeometry x="1530" y="160" width="60" height="30" as="geometry" />
        </mxCell>
        <mxCell id="oJ3E4rCQZsHQg811ANoI-114" value="" style="edgeStyle=orthogonalEdgeStyle;rounded=0;orthogonalLoop=1;jettySize=auto;html=1;entryX=1;entryY=0.5;entryDx=0;entryDy=0;" parent="1" source="oJ3E4rCQZsHQg811ANoI-76" target="oJ3E4rCQZsHQg811ANoI-50" edge="1">
          <mxGeometry relative="1" as="geometry">
            <mxPoint x="1230" y="65" as="targetPoint" />
            <mxPoint x="1680" y="485" as="sourcePoint" />
            <Array as="points">
              <mxPoint x="1770" y="485" />
              <mxPoint x="1770" y="65" />
            </Array>
          </mxGeometry>
        </mxCell>
        <mxCell id="oJ3E4rCQZsHQg811ANoI-113" value="Lăp số lần theo config (md: 3 lần)" style="text;html=1;align=center;verticalAlign=middle;whiteSpace=wrap;rounded=0;" parent="1" vertex="1">
          <mxGeometry x="1390" y="30" width="150" height="30" as="geometry" />
        </mxCell>
        <mxCell id="oJ3E4rCQZsHQg811ANoI-116" value="Không" style="text;html=1;align=center;verticalAlign=middle;whiteSpace=wrap;rounded=0;" parent="1" vertex="1">
          <mxGeometry x="1530" y="240" width="60" height="30" as="geometry" />
        </mxCell>
        <mxCell id="oJ3E4rCQZsHQg811ANoI-117" value="Không" style="text;html=1;align=center;verticalAlign=middle;whiteSpace=wrap;rounded=0;" parent="1" vertex="1">
          <mxGeometry x="1530" y="540" width="60" height="30" as="geometry" />
        </mxCell>
        <mxCell id="oJ3E4rCQZsHQg811ANoI-118" value="Có" style="text;html=1;align=center;verticalAlign=middle;whiteSpace=wrap;rounded=0;" parent="1" vertex="1">
          <mxGeometry x="1530" y="450" width="60" height="30" as="geometry" />
        </mxCell>
        <mxCell id="oJ3E4rCQZsHQg811ANoI-122" style="edgeStyle=orthogonalEdgeStyle;rounded=0;orthogonalLoop=1;jettySize=auto;html=1;entryX=0;entryY=0.5;entryDx=0;entryDy=0;entryPerimeter=0;" parent="1" source="oJ3E4rCQZsHQg811ANoI-40" target="oJ3E4rCQZsHQg811ANoI-46" edge="1">
          <mxGeometry relative="1" as="geometry" />
        </mxCell>
        <mxCell id="oJ3E4rCQZsHQg811ANoI-127" style="edgeStyle=orthogonalEdgeStyle;rounded=0;orthogonalLoop=1;jettySize=auto;html=1;entryX=0.5;entryY=0;entryDx=0;entryDy=0;entryPerimeter=0;" parent="1" source="oJ3E4rCQZsHQg811ANoI-48" target="oJ3E4rCQZsHQg811ANoI-88" edge="1">
          <mxGeometry relative="1" as="geometry" />
        </mxCell>
        <mxCell id="oJ3E4rCQZsHQg811ANoI-130" style="edgeStyle=orthogonalEdgeStyle;rounded=0;orthogonalLoop=1;jettySize=auto;html=1;entryX=0.5;entryY=0;entryDx=0;entryDy=0;entryPerimeter=0;" parent="1" source="oJ3E4rCQZsHQg811ANoI-42" target="oJ3E4rCQZsHQg811ANoI-43" edge="1">
          <mxGeometry relative="1" as="geometry" />
        </mxCell>
        <mxCell id="oJ3E4rCQZsHQg811ANoI-131" style="edgeStyle=orthogonalEdgeStyle;rounded=0;orthogonalLoop=1;jettySize=auto;html=1;entryX=0.5;entryY=0;entryDx=0;entryDy=0;entryPerimeter=0;" parent="1" source="oJ3E4rCQZsHQg811ANoI-43" target="oJ3E4rCQZsHQg811ANoI-44" edge="1">
          <mxGeometry relative="1" as="geometry" />
        </mxCell>
        <mxCell id="oJ3E4rCQZsHQg811ANoI-132" style="edgeStyle=orthogonalEdgeStyle;rounded=0;orthogonalLoop=1;jettySize=auto;html=1;entryX=0.5;entryY=0;entryDx=0;entryDy=0;entryPerimeter=0;" parent="1" source="oJ3E4rCQZsHQg811ANoI-44" target="oJ3E4rCQZsHQg811ANoI-45" edge="1">
          <mxGeometry relative="1" as="geometry" />
        </mxCell>
        <mxCell id="oJ3E4rCQZsHQg811ANoI-133" style="edgeStyle=orthogonalEdgeStyle;rounded=0;orthogonalLoop=1;jettySize=auto;html=1;entryX=0.5;entryY=0;entryDx=0;entryDy=0;entryPerimeter=0;" parent="1" source="oJ3E4rCQZsHQg811ANoI-45" target="oJ3E4rCQZsHQg811ANoI-57" edge="1">
          <mxGeometry relative="1" as="geometry" />
        </mxCell>
        <mxCell id="oJ3E4rCQZsHQg811ANoI-147" style="edgeStyle=orthogonalEdgeStyle;rounded=0;orthogonalLoop=1;jettySize=auto;html=1;entryX=1;entryY=0.5;entryDx=0;entryDy=0;entryPerimeter=0;" parent="1" source="oJ3E4rCQZsHQg811ANoI-27" target="oJ3E4rCQZsHQg811ANoI-60" edge="1">
          <mxGeometry relative="1" as="geometry" />
        </mxCell>
        <mxCell id="oJ3E4rCQZsHQg811ANoI-148" style="edgeStyle=orthogonalEdgeStyle;rounded=0;orthogonalLoop=1;jettySize=auto;html=1;entryX=0.5;entryY=0;entryDx=0;entryDy=0;entryPerimeter=0;" parent="1" source="oJ3E4rCQZsHQg811ANoI-60" target="j7GnpJIxGhJe8ZzKr4eX-10" edge="1">
          <mxGeometry relative="1" as="geometry" />
        </mxCell>
        <mxCell id="oJ3E4rCQZsHQg811ANoI-149" style="edgeStyle=orthogonalEdgeStyle;rounded=0;orthogonalLoop=1;jettySize=auto;html=1;entryX=0.5;entryY=0;entryDx=0;entryDy=0;entryPerimeter=0;" parent="1" source="oJ3E4rCQZsHQg811ANoI-61" target="oJ3E4rCQZsHQg811ANoI-63" edge="1">
          <mxGeometry relative="1" as="geometry" />
        </mxCell>
        <mxCell id="oJ3E4rCQZsHQg811ANoI-150" style="edgeStyle=orthogonalEdgeStyle;rounded=0;orthogonalLoop=1;jettySize=auto;html=1;entryX=0.5;entryY=0;entryDx=0;entryDy=0;entryPerimeter=0;" parent="1" source="oJ3E4rCQZsHQg811ANoI-63" target="oJ3E4rCQZsHQg811ANoI-28" edge="1">
          <mxGeometry relative="1" as="geometry" />
        </mxCell>
        <mxCell id="oJ3E4rCQZsHQg811ANoI-151" style="edgeStyle=orthogonalEdgeStyle;rounded=0;orthogonalLoop=1;jettySize=auto;html=1;entryX=0.5;entryY=0;entryDx=0;entryDy=0;entryPerimeter=0;" parent="1" source="oJ3E4rCQZsHQg811ANoI-61" target="oJ3E4rCQZsHQg811ANoI-28" edge="1">
          <mxGeometry relative="1" as="geometry" />
        </mxCell>
        <mxCell id="VBR34R2BidAj_h5bLNep-4" style="edgeStyle=orthogonalEdgeStyle;rounded=0;orthogonalLoop=1;jettySize=auto;html=1;entryX=0;entryY=0.5;entryDx=0;entryDy=0;entryPerimeter=0;" parent="1" source="oJ3E4rCQZsHQg811ANoI-72" target="oJ3E4rCQZsHQg811ANoI-33" edge="1">
          <mxGeometry relative="1" as="geometry" />
        </mxCell>
        <mxCell id="VBR34R2BidAj_h5bLNep-6" style="edgeStyle=orthogonalEdgeStyle;rounded=0;orthogonalLoop=1;jettySize=auto;html=1;entryX=0.5;entryY=0;entryDx=0;entryDy=0;entryPerimeter=0;" parent="1" source="oJ3E4rCQZsHQg811ANoI-30" target="oJ3E4rCQZsHQg811ANoI-32" edge="1">
          <mxGeometry relative="1" as="geometry" />
        </mxCell>
        <mxCell id="VBR34R2BidAj_h5bLNep-8" value="Luồng khám phá" style="text;html=1;align=center;verticalAlign=middle;whiteSpace=wrap;rounded=0;" parent="1" vertex="1">
          <mxGeometry x="1045" y="60" width="60" height="30" as="geometry" />
        </mxCell>
        <mxCell id="VBR34R2BidAj_h5bLNep-10" value="Luồng chọn các hành động trong map" style="text;html=1;align=center;verticalAlign=middle;whiteSpace=wrap;rounded=0;" parent="1" vertex="1">
          <mxGeometry x="905" y="790" width="85" height="30" as="geometry" />
        </mxCell>
        <mxCell id="VBR34R2BidAj_h5bLNep-11" value="Luồng main" style="text;html=1;align=center;verticalAlign=middle;whiteSpace=wrap;rounded=0;" parent="1" vertex="1">
          <mxGeometry x="560" y="530" width="60" height="30" as="geometry" />
        </mxCell>
        <mxCell id="VBR34R2BidAj_h5bLNep-12" value="Luồng file io" style="text;html=1;align=center;verticalAlign=middle;whiteSpace=wrap;rounded=0;" parent="1" vertex="1">
          <mxGeometry x="-820" y="30" width="60" height="30" as="geometry" />
        </mxCell>
        <mxCell id="VBR34R2BidAj_h5bLNep-13" value="Lưu game" style="rounded=1;whiteSpace=wrap;html=1;absoluteArcSize=1;arcSize=14;strokeWidth=2;" parent="1" vertex="1">
          <mxGeometry x="-750" y="50" width="90" height="70" as="geometry" />
        </mxCell>
        <mxCell id="VBR34R2BidAj_h5bLNep-14" value="Load game" style="rounded=1;whiteSpace=wrap;html=1;absoluteArcSize=1;arcSize=14;strokeWidth=2;" parent="1" vertex="1">
          <mxGeometry x="-755" y="180" width="95" height="70" as="geometry" />
        </mxCell>
        <mxCell id="VBR34R2BidAj_h5bLNep-15" style="edgeStyle=orthogonalEdgeStyle;rounded=0;orthogonalLoop=1;jettySize=auto;html=1;entryX=0.5;entryY=0;entryDx=0;entryDy=0;entryPerimeter=0;" parent="1" source="oJ3E4rCQZsHQg811ANoI-60" target="oJ3E4rCQZsHQg811ANoI-28" edge="1">
          <mxGeometry relative="1" as="geometry" />
        </mxCell>
        <mxCell id="VBR34R2BidAj_h5bLNep-38" style="edgeStyle=orthogonalEdgeStyle;rounded=0;orthogonalLoop=1;jettySize=auto;html=1;" parent="1" source="VBR34R2BidAj_h5bLNep-16" target="VBR34R2BidAj_h5bLNep-17" edge="1">
          <mxGeometry relative="1" as="geometry" />
        </mxCell>
        <mxCell id="VBR34R2BidAj_h5bLNep-16" value="Luồng combat" style="rounded=1;whiteSpace=wrap;html=1;absoluteArcSize=1;arcSize=14;strokeWidth=2;" parent="1" vertex="1">
          <mxGeometry x="1540" y="712" width="100" height="70" as="geometry" />
        </mxCell>
        <mxCell id="VBR34R2BidAj_h5bLNep-39" style="edgeStyle=orthogonalEdgeStyle;rounded=0;orthogonalLoop=1;jettySize=auto;html=1;" parent="1" source="VBR34R2BidAj_h5bLNep-17" target="VBR34R2BidAj_h5bLNep-18" edge="1">
          <mxGeometry relative="1" as="geometry" />
        </mxCell>
        <mxCell id="VBR34R2BidAj_h5bLNep-17" value="Chọn quái vật gặp phải theo map đang ở" style="rounded=1;whiteSpace=wrap;html=1;absoluteArcSize=1;arcSize=14;strokeWidth=2;" parent="1" vertex="1">
          <mxGeometry x="1700" y="712" width="110" height="68" as="geometry" />
        </mxCell>
        <mxCell id="VBR34R2BidAj_h5bLNep-40" style="edgeStyle=orthogonalEdgeStyle;rounded=0;orthogonalLoop=1;jettySize=auto;html=1;" parent="1" source="VBR34R2BidAj_h5bLNep-18" target="VBR34R2BidAj_h5bLNep-19" edge="1">
          <mxGeometry relative="1" as="geometry" />
        </mxCell>
        <mxCell id="VBR34R2BidAj_h5bLNep-18" value="Chọn level của quái theo công thức: LV nhân vật cao nhất + random(-1, 1) * hệ số độ khó" style="rounded=1;whiteSpace=wrap;html=1;absoluteArcSize=1;arcSize=14;strokeWidth=2;" parent="1" vertex="1">
          <mxGeometry x="1870" y="715" width="130" height="75" as="geometry" />
        </mxCell>
        <mxCell id="VBR34R2BidAj_h5bLNep-29" style="edgeStyle=orthogonalEdgeStyle;rounded=0;orthogonalLoop=1;jettySize=auto;html=1;" parent="1" source="VBR34R2BidAj_h5bLNep-19" target="VBR34R2BidAj_h5bLNep-20" edge="1">
          <mxGeometry relative="1" as="geometry" />
        </mxCell>
        <mxCell id="VBR34R2BidAj_h5bLNep-19" value="In ra thông tin hai bên" style="rounded=1;whiteSpace=wrap;html=1;absoluteArcSize=1;arcSize=14;strokeWidth=2;" parent="1" vertex="1">
          <mxGeometry x="2050" y="712" width="100" height="87.5" as="geometry" />
        </mxCell>
        <mxCell id="VBR34R2BidAj_h5bLNep-30" style="edgeStyle=orthogonalEdgeStyle;rounded=0;orthogonalLoop=1;jettySize=auto;html=1;" parent="1" source="VBR34R2BidAj_h5bLNep-20" target="VBR34R2BidAj_h5bLNep-21" edge="1">
          <mxGeometry relative="1" as="geometry" />
        </mxCell>
        <mxCell id="VBR34R2BidAj_h5bLNep-34" style="edgeStyle=orthogonalEdgeStyle;rounded=0;orthogonalLoop=1;jettySize=auto;html=1;entryX=0;entryY=0.5;entryDx=0;entryDy=0;" parent="1" source="VBR34R2BidAj_h5bLNep-20" target="VBR34R2BidAj_h5bLNep-28" edge="1">
          <mxGeometry relative="1" as="geometry" />
        </mxCell>
        <mxCell id="VBR34R2BidAj_h5bLNep-20" value="Tấn công" style="strokeWidth=2;html=1;shape=mxgraph.flowchart.decision;whiteSpace=wrap;" parent="1" vertex="1">
          <mxGeometry x="2050" y="862" width="100" height="100" as="geometry" />
        </mxCell>
        <mxCell id="VBR34R2BidAj_h5bLNep-31" style="edgeStyle=orthogonalEdgeStyle;rounded=0;orthogonalLoop=1;jettySize=auto;html=1;" parent="1" source="VBR34R2BidAj_h5bLNep-21" target="VBR34R2BidAj_h5bLNep-22" edge="1">
          <mxGeometry relative="1" as="geometry" />
        </mxCell>
        <mxCell id="VBR34R2BidAj_h5bLNep-35" style="edgeStyle=orthogonalEdgeStyle;rounded=0;orthogonalLoop=1;jettySize=auto;html=1;" parent="1" source="VBR34R2BidAj_h5bLNep-21" edge="1">
          <mxGeometry relative="1" as="geometry">
            <mxPoint x="2240" y="1000" as="targetPoint" />
            <Array as="points">
              <mxPoint x="2200" y="1065" />
              <mxPoint x="2200" y="1000" />
            </Array>
          </mxGeometry>
        </mxCell>
        <mxCell id="VBR34R2BidAj_h5bLNep-21" value="Skill" style="strokeWidth=2;html=1;shape=mxgraph.flowchart.decision;whiteSpace=wrap;" parent="1" vertex="1">
          <mxGeometry x="2050" y="1015" width="100" height="100" as="geometry" />
        </mxCell>
        <mxCell id="VBR34R2BidAj_h5bLNep-32" style="edgeStyle=orthogonalEdgeStyle;rounded=0;orthogonalLoop=1;jettySize=auto;html=1;" parent="1" source="VBR34R2BidAj_h5bLNep-22" target="VBR34R2BidAj_h5bLNep-23" edge="1">
          <mxGeometry relative="1" as="geometry" />
        </mxCell>
        <mxCell id="VBR34R2BidAj_h5bLNep-33" style="edgeStyle=orthogonalEdgeStyle;rounded=0;orthogonalLoop=1;jettySize=auto;html=1;" parent="1" source="VBR34R2BidAj_h5bLNep-22" edge="1">
          <mxGeometry relative="1" as="geometry">
            <mxPoint x="2100" y="860" as="targetPoint" />
            <Array as="points">
              <mxPoint x="1970" y="1215" />
              <mxPoint x="1970" y="860" />
            </Array>
          </mxGeometry>
        </mxCell>
        <mxCell id="VBR34R2BidAj_h5bLNep-22" value="Items" style="strokeWidth=2;html=1;shape=mxgraph.flowchart.decision;whiteSpace=wrap;" parent="1" vertex="1">
          <mxGeometry x="2050" y="1165" width="100" height="100" as="geometry" />
        </mxCell>
        <mxCell id="VBR34R2BidAj_h5bLNep-27" style="edgeStyle=orthogonalEdgeStyle;rounded=0;orthogonalLoop=1;jettySize=auto;html=1;" parent="1" source="VBR34R2BidAj_h5bLNep-23" target="VBR34R2BidAj_h5bLNep-24" edge="1">
          <mxGeometry relative="1" as="geometry" />
        </mxCell>
        <mxCell id="VBR34R2BidAj_h5bLNep-23" value="Run away" style="strokeWidth=2;html=1;shape=mxgraph.flowchart.decision;whiteSpace=wrap;" parent="1" vertex="1">
          <mxGeometry x="2050" y="1300" width="100" height="100" as="geometry" />
        </mxCell>
        <mxCell id="VBR34R2BidAj_h5bLNep-24" value="Tỉ lệ thành công = Random(0-1) + (Tổng HP ta - tổng hp địch) / tổng hp ta &amp;gt; 1&amp;nbsp;" style="rounded=1;whiteSpace=wrap;html=1;absoluteArcSize=1;arcSize=14;strokeWidth=2;" parent="1" vertex="1">
          <mxGeometry x="2210" y="1300" width="100" height="100" as="geometry" />
        </mxCell>
        <mxCell id="VBR34R2BidAj_h5bLNep-25" value="Thoát combat" style="strokeWidth=2;html=1;shape=mxgraph.flowchart.terminator;whiteSpace=wrap;" parent="1" vertex="1">
          <mxGeometry x="2380" y="1320" width="100" height="60" as="geometry" />
        </mxCell>
        <mxCell id="VBR34R2BidAj_h5bLNep-26" style="edgeStyle=orthogonalEdgeStyle;rounded=0;orthogonalLoop=1;jettySize=auto;html=1;" parent="1" source="VBR34R2BidAj_h5bLNep-24" target="VBR34R2BidAj_h5bLNep-25" edge="1">
          <mxGeometry relative="1" as="geometry">
            <mxPoint x="2370" y="1349" as="targetPoint" />
          </mxGeometry>
        </mxCell>
        <mxCell id="VBR34R2BidAj_h5bLNep-37" style="edgeStyle=orthogonalEdgeStyle;rounded=0;orthogonalLoop=1;jettySize=auto;html=1;entryX=1;entryY=0.5;entryDx=0;entryDy=0;" parent="1" source="VBR34R2BidAj_h5bLNep-28" target="VBR34R2BidAj_h5bLNep-19" edge="1">
          <mxGeometry relative="1" as="geometry">
            <Array as="points">
              <mxPoint x="2290" y="756" />
            </Array>
          </mxGeometry>
        </mxCell>
        <mxCell id="VBR34R2BidAj_h5bLNep-28" value="Lượt của địch" style="rounded=1;whiteSpace=wrap;html=1;absoluteArcSize=1;arcSize=14;strokeWidth=2;" parent="1" vertex="1">
          <mxGeometry x="2240" y="950" width="100" height="100" as="geometry" />
        </mxCell>
        <mxCell id="l8NPkd662WTSOCFMI4Qp-14" style="edgeStyle=orthogonalEdgeStyle;rounded=0;orthogonalLoop=1;jettySize=auto;html=1;" parent="1" source="l8NPkd662WTSOCFMI4Qp-1" target="l8NPkd662WTSOCFMI4Qp-2" edge="1">
          <mxGeometry relative="1" as="geometry" />
        </mxCell>
        <mxCell id="l8NPkd662WTSOCFMI4Qp-1" value="Luồng shop" style="rounded=1;whiteSpace=wrap;html=1;absoluteArcSize=1;arcSize=14;strokeWidth=2;" parent="1" vertex="1">
          <mxGeometry x="-165" y="1040" width="100" height="80" as="geometry" />
        </mxCell>
        <mxCell id="l8NPkd662WTSOCFMI4Qp-15" style="edgeStyle=orthogonalEdgeStyle;rounded=0;orthogonalLoop=1;jettySize=auto;html=1;" parent="1" source="l8NPkd662WTSOCFMI4Qp-2" target="l8NPkd662WTSOCFMI4Qp-3" edge="1">
          <mxGeometry relative="1" as="geometry" />
        </mxCell>
        <mxCell id="l8NPkd662WTSOCFMI4Qp-18" style="edgeStyle=orthogonalEdgeStyle;rounded=0;orthogonalLoop=1;jettySize=auto;html=1;" parent="1" source="l8NPkd662WTSOCFMI4Qp-2" target="l8NPkd662WTSOCFMI4Qp-5" edge="1">
          <mxGeometry relative="1" as="geometry" />
        </mxCell>
        <mxCell id="l8NPkd662WTSOCFMI4Qp-2" value="Mua" style="strokeWidth=2;html=1;shape=mxgraph.flowchart.decision;whiteSpace=wrap;" parent="1" vertex="1">
          <mxGeometry x="-165" y="1170" width="100" height="100" as="geometry" />
        </mxCell>
        <mxCell id="l8NPkd662WTSOCFMI4Qp-16" style="edgeStyle=orthogonalEdgeStyle;rounded=0;orthogonalLoop=1;jettySize=auto;html=1;" parent="1" source="l8NPkd662WTSOCFMI4Qp-3" target="l8NPkd662WTSOCFMI4Qp-4" edge="1">
          <mxGeometry relative="1" as="geometry" />
        </mxCell>
        <mxCell id="l8NPkd662WTSOCFMI4Qp-17" style="edgeStyle=orthogonalEdgeStyle;rounded=0;orthogonalLoop=1;jettySize=auto;html=1;" parent="1" source="l8NPkd662WTSOCFMI4Qp-3" target="l8NPkd662WTSOCFMI4Qp-13" edge="1">
          <mxGeometry relative="1" as="geometry" />
        </mxCell>
        <mxCell id="l8NPkd662WTSOCFMI4Qp-3" value="Bán" style="strokeWidth=2;html=1;shape=mxgraph.flowchart.decision;whiteSpace=wrap;" parent="1" vertex="1">
          <mxGeometry x="-165" y="1320" width="100" height="100" as="geometry" />
        </mxCell>
        <mxCell id="l8NPkd662WTSOCFMI4Qp-4" value="Thoát" style="strokeWidth=2;html=1;shape=mxgraph.flowchart.decision;whiteSpace=wrap;" parent="1" vertex="1">
          <mxGeometry x="-165" y="1470" width="100" height="100" as="geometry" />
        </mxCell>
        <mxCell id="l8NPkd662WTSOCFMI4Qp-5" value="Hiển thị danh sách các đồ có trong shop, chia ra làm các mục, có thể paging nếu cần" style="rounded=1;whiteSpace=wrap;html=1;absoluteArcSize=1;arcSize=14;strokeWidth=2;" parent="1" vertex="1">
          <mxGeometry x="-5" y="1170" width="100" height="100" as="geometry" />
        </mxCell>
        <mxCell id="l8NPkd662WTSOCFMI4Qp-20" style="edgeStyle=orthogonalEdgeStyle;rounded=0;orthogonalLoop=1;jettySize=auto;html=1;" parent="1" source="l8NPkd662WTSOCFMI4Qp-6" target="l8NPkd662WTSOCFMI4Qp-7" edge="1">
          <mxGeometry relative="1" as="geometry" />
        </mxCell>
        <mxCell id="l8NPkd662WTSOCFMI4Qp-21" style="edgeStyle=orthogonalEdgeStyle;rounded=0;orthogonalLoop=1;jettySize=auto;html=1;" parent="1" source="l8NPkd662WTSOCFMI4Qp-6" target="l8NPkd662WTSOCFMI4Qp-8" edge="1">
          <mxGeometry relative="1" as="geometry" />
        </mxCell>
        <mxCell id="l8NPkd662WTSOCFMI4Qp-6" value="Chọn ..." style="strokeWidth=2;html=1;shape=mxgraph.flowchart.decision;whiteSpace=wrap;" parent="1" vertex="1">
          <mxGeometry x="165" y="1170" width="100" height="100" as="geometry" />
        </mxCell>
        <mxCell id="l8NPkd662WTSOCFMI4Qp-7" value="Thoát" style="strokeWidth=2;html=1;shape=mxgraph.flowchart.decision;whiteSpace=wrap;" parent="1" vertex="1">
          <mxGeometry x="165" y="1305" width="100" height="100" as="geometry" />
        </mxCell>
        <mxCell id="l8NPkd662WTSOCFMI4Qp-22" style="edgeStyle=orthogonalEdgeStyle;rounded=0;orthogonalLoop=1;jettySize=auto;html=1;" parent="1" source="l8NPkd662WTSOCFMI4Qp-8" target="l8NPkd662WTSOCFMI4Qp-9" edge="1">
          <mxGeometry relative="1" as="geometry" />
        </mxCell>
        <mxCell id="l8NPkd662WTSOCFMI4Qp-8" value="Cho phép chọn nhân vật muốn mua đồ cho" style="rounded=1;whiteSpace=wrap;html=1;absoluteArcSize=1;arcSize=14;strokeWidth=2;" parent="1" vertex="1">
          <mxGeometry x="315" y="1170" width="100" height="100" as="geometry" />
        </mxCell>
        <mxCell id="l8NPkd662WTSOCFMI4Qp-23" style="edgeStyle=orthogonalEdgeStyle;rounded=0;orthogonalLoop=1;jettySize=auto;html=1;" parent="1" source="l8NPkd662WTSOCFMI4Qp-9" target="l8NPkd662WTSOCFMI4Qp-10" edge="1">
          <mxGeometry relative="1" as="geometry" />
        </mxCell>
        <mxCell id="l8NPkd662WTSOCFMI4Qp-9" value="Hiển thị chỉ số trước / sau khi trang bị và hiển thị bảng confirm" style="rounded=1;whiteSpace=wrap;html=1;absoluteArcSize=1;arcSize=14;strokeWidth=2;" parent="1" vertex="1">
          <mxGeometry x="470" y="1170" width="100" height="100" as="geometry" />
        </mxCell>
        <mxCell id="l8NPkd662WTSOCFMI4Qp-24" style="edgeStyle=orthogonalEdgeStyle;rounded=0;orthogonalLoop=1;jettySize=auto;html=1;" parent="1" source="l8NPkd662WTSOCFMI4Qp-10" target="l8NPkd662WTSOCFMI4Qp-11" edge="1">
          <mxGeometry relative="1" as="geometry" />
        </mxCell>
        <mxCell id="l8NPkd662WTSOCFMI4Qp-10" value="Mua" style="strokeWidth=2;html=1;shape=mxgraph.flowchart.decision;whiteSpace=wrap;" parent="1" vertex="1">
          <mxGeometry x="620" y="1170" width="100" height="100" as="geometry" />
        </mxCell>
        <mxCell id="l8NPkd662WTSOCFMI4Qp-11" value="Thoát" style="strokeWidth=2;html=1;shape=mxgraph.flowchart.decision;whiteSpace=wrap;" parent="1" vertex="1">
          <mxGeometry x="620" y="1310" width="100" height="100" as="geometry" />
        </mxCell>
        <mxCell id="l8NPkd662WTSOCFMI4Qp-13" value="Hiện danh sách đồ bán được và giá tiền xong xác nhận..." style="rounded=1;whiteSpace=wrap;html=1;absoluteArcSize=1;arcSize=14;strokeWidth=2;" parent="1" vertex="1">
          <mxGeometry y="1320" width="100" height="100" as="geometry" />
        </mxCell>
        <mxCell id="l8NPkd662WTSOCFMI4Qp-19" style="edgeStyle=orthogonalEdgeStyle;rounded=0;orthogonalLoop=1;jettySize=auto;html=1;entryX=0;entryY=0.5;entryDx=0;entryDy=0;entryPerimeter=0;" parent="1" source="l8NPkd662WTSOCFMI4Qp-5" target="l8NPkd662WTSOCFMI4Qp-6" edge="1">
          <mxGeometry relative="1" as="geometry" />
        </mxCell>
        <mxCell id="l8NPkd662WTSOCFMI4Qp-25" value="Luồng tạo nhân vật" style="rounded=1;whiteSpace=wrap;html=1;absoluteArcSize=1;arcSize=14;strokeWidth=2;" parent="1" vertex="1">
          <mxGeometry x="-165" y="1655" width="100" height="100" as="geometry" />
        </mxCell>
        <mxCell id="l8NPkd662WTSOCFMI4Qp-26" value="Hiển thị các slot, yêu cầu chọn slot" style="rounded=1;whiteSpace=wrap;html=1;absoluteArcSize=1;arcSize=14;strokeWidth=2;" parent="1" vertex="1">
          <mxGeometry x="75" y="1655" width="100" height="100" as="geometry" />
        </mxCell>
        <mxCell id="l8NPkd662WTSOCFMI4Qp-27" value="" style="strokeWidth=2;html=1;shape=mxgraph.flowchart.decision;whiteSpace=wrap;" parent="1" vertex="1">
          <mxGeometry x="195" y="1650" width="100" height="100" as="geometry" />
        </mxCell>
        <mxCell id="l8NPkd662WTSOCFMI4Qp-28" value="Hiển thị các nhân vật, yêu cầu chọn nhân vật" style="rounded=1;whiteSpace=wrap;html=1;absoluteArcSize=1;arcSize=14;strokeWidth=2;" parent="1" vertex="1">
          <mxGeometry x="335" y="1655" width="100" height="100" as="geometry" />
        </mxCell>
        <mxCell id="l8NPkd662WTSOCFMI4Qp-29" value="" style="strokeWidth=2;html=1;shape=mxgraph.flowchart.decision;whiteSpace=wrap;" parent="1" vertex="1">
          <mxGeometry x="485" y="1655" width="100" height="100" as="geometry" />
        </mxCell>
        <mxCell id="l8NPkd662WTSOCFMI4Qp-30" value="Hiển thị chỉ số nhân vật, hiện xác nhận" style="rounded=1;whiteSpace=wrap;html=1;absoluteArcSize=1;arcSize=14;strokeWidth=2;" parent="1" vertex="1">
          <mxGeometry x="630" y="1655" width="100" height="100" as="geometry" />
        </mxCell>
        <mxCell id="l8NPkd662WTSOCFMI4Qp-32" value="Nhân vật &amp;gt; 0" style="strokeWidth=2;html=1;shape=mxgraph.flowchart.decision;whiteSpace=wrap;" parent="1" vertex="1">
          <mxGeometry x="-45" y="1780" width="100" height="100" as="geometry" />
        </mxCell>
        <mxCell id="l8NPkd662WTSOCFMI4Qp-34" value="Bỏ nhân vật" style="strokeWidth=2;html=1;shape=mxgraph.flowchart.decision;whiteSpace=wrap;" parent="1" vertex="1">
          <mxGeometry x="80" y="1780" width="100" height="100" as="geometry" />
        </mxCell>
        <mxCell id="l8NPkd662WTSOCFMI4Qp-35" value="Thêm nhân vật" style="strokeWidth=2;html=1;shape=mxgraph.flowchart.decision;whiteSpace=wrap;" parent="1" vertex="1">
          <mxGeometry x="-45" y="1655" width="100" height="100" as="geometry" />
        </mxCell>
        <mxCell id="l8NPkd662WTSOCFMI4Qp-36" value="Hiển thị đội hình" style="strokeWidth=2;html=1;shape=mxgraph.flowchart.decision;whiteSpace=wrap;" parent="1" vertex="1">
          <mxGeometry x="-45" y="1985" width="100" height="100" as="geometry" />
        </mxCell>
        <mxCell id="l8NPkd662WTSOCFMI4Qp-37" value="Đổi nhân vật" style="strokeWidth=2;html=1;shape=mxgraph.flowchart.decision;whiteSpace=wrap;" parent="1" vertex="1">
          <mxGeometry x="80" y="1900" width="100" height="100" as="geometry" />
        </mxCell>
        <mxCell id="l8NPkd662WTSOCFMI4Qp-38" value="Cho phép chọn nhân vật mới rồi so sánh stat" style="rounded=1;whiteSpace=wrap;html=1;absoluteArcSize=1;arcSize=14;strokeWidth=2;" parent="1" vertex="1">
          <mxGeometry x="215" y="1900" width="100" height="100" as="geometry" />
        </mxCell>
        <mxCell id="l8NPkd662WTSOCFMI4Qp-39" value="Cho phép chọn một nhân vật để bó" style="rounded=1;whiteSpace=wrap;html=1;absoluteArcSize=1;arcSize=14;strokeWidth=2;" parent="1" vertex="1">
          <mxGeometry x="195" y="1780" width="100" height="100" as="geometry" />
        </mxCell>
        <mxCell id="l8NPkd662WTSOCFMI4Qp-40" value="Luồng di chuyển&amp;nbsp;" style="rounded=1;whiteSpace=wrap;html=1;absoluteArcSize=1;arcSize=14;strokeWidth=2;" parent="1" vertex="1">
          <mxGeometry x="1500" y="1510" width="100" height="100" as="geometry" />
        </mxCell>
        <mxCell id="l8NPkd662WTSOCFMI4Qp-41" value="Hiển thị các địa điểm xung quanh và cho phép chọn rồi đi đến" style="rounded=1;whiteSpace=wrap;html=1;absoluteArcSize=1;arcSize=14;strokeWidth=2;" parent="1" vertex="1">
          <mxGeometry x="1660" y="1510" width="100" height="100" as="geometry" />
        </mxCell>
        <mxCell id="l8NPkd662WTSOCFMI4Qp-43" value="Biến về, bfs về nhà" style="strokeWidth=2;html=1;shape=mxgraph.flowchart.decision;whiteSpace=wrap;" parent="1" vertex="1">
          <mxGeometry x="1660" y="1640" width="100" height="100" as="geometry" />
        </mxCell>
        <mxCell id="j7GnpJIxGhJe8ZzKr4eX-1" value="" style="rounded=1;whiteSpace=wrap;html=1;absoluteArcSize=1;arcSize=14;strokeWidth=2;" parent="1" vertex="1">
          <mxGeometry x="380" y="610" width="100" height="100" as="geometry" />
        </mxCell>
        <mxCell id="j7GnpJIxGhJe8ZzKr4eX-2" value="Luồng game" style="rounded=1;whiteSpace=wrap;html=1;absoluteArcSize=1;arcSize=14;strokeWidth=2;" parent="1" vertex="1">
          <mxGeometry x="380" y="610" width="100" height="100" as="geometry" />
        </mxCell>
        <mxCell id="j7GnpJIxGhJe8ZzKr4eX-5" value="Luồng game" style="rounded=1;whiteSpace=wrap;html=1;absoluteArcSize=1;arcSize=14;strokeWidth=2;" parent="1" vertex="1">
          <mxGeometry x="-450" y="470" width="100" height="100" as="geometry" />
        </mxCell>
        <mxCell id="j7GnpJIxGhJe8ZzKr4eX-8" value="Kết thúc" style="strokeWidth=2;html=1;shape=mxgraph.flowchart.terminator;whiteSpace=wrap;" parent="1" vertex="1">
          <mxGeometry x="780" y="566" width="100" height="60" as="geometry" />
        </mxCell>
        <mxCell id="j7GnpJIxGhJe8ZzKr4eX-12" style="edgeStyle=orthogonalEdgeStyle;rounded=0;orthogonalLoop=1;jettySize=auto;html=1;entryX=1;entryY=0.5;entryDx=0;entryDy=0;" parent="1" source="j7GnpJIxGhJe8ZzKr4eX-10" target="j7GnpJIxGhJe8ZzKr4eX-5" edge="1">
          <mxGeometry relative="1" as="geometry" />
        </mxCell>
        <mxCell id="j7GnpJIxGhJe8ZzKr4eX-10" value="Continue" style="strokeWidth=2;html=1;shape=mxgraph.flowchart.decision;whiteSpace=wrap;" parent="1" vertex="1">
          <mxGeometry x="-300" y="395" width="80" height="80" as="geometry" />
        </mxCell>
        <mxCell id="j7GnpJIxGhJe8ZzKr4eX-11" style="edgeStyle=orthogonalEdgeStyle;rounded=0;orthogonalLoop=1;jettySize=auto;html=1;entryX=0.5;entryY=0;entryDx=0;entryDy=0;entryPerimeter=0;" parent="1" source="j7GnpJIxGhJe8ZzKr4eX-10" target="oJ3E4rCQZsHQg811ANoI-61" edge="1">
          <mxGeometry relative="1" as="geometry" />
        </mxCell>
        <mxCell id="j7GnpJIxGhJe8ZzKr4eX-13" value="Khong" style="text;html=1;align=center;verticalAlign=middle;resizable=0;points=[];autosize=1;strokeColor=none;fillColor=none;" parent="1" vertex="1">
          <mxGeometry x="990" y="808" width="60" height="30" as="geometry" />
        </mxCell>
      </root>
    </mxGraphModel>
  </diagram>
</mxfile>
